<mxfile host="app.diagrams.net" modified="2024-06-14T18:47:05.475Z" agent="Mozilla/5.0 (Windows NT 10.0; Win64; x64) AppleWebKit/537.36 (KHTML, like Gecko) Chrome/125.0.0.0 Safari/537.36 Edg/125.0.0.0" etag="Q_uVVvflMSQsr2goLGAb" version="24.5.4" type="device">
  <diagram name="PÃ¡gina-1" id="VqgEwiMuud5oMXORhVzx">
    <mxGraphModel dx="1002" dy="577" grid="1" gridSize="10" guides="1" tooltips="1" connect="1" arrows="1" fold="1" page="1" pageScale="1" pageWidth="827" pageHeight="1169" math="0" shadow="0">
      <root>
        <mxCell id="0" />
        <mxCell id="1" parent="0" />
        <mxCell id="JlspJVOZABOzyax3a17K-3" value="" style="edgeStyle=orthogonalEdgeStyle;rounded=0;orthogonalLoop=1;jettySize=auto;html=1;" parent="1" source="JlspJVOZABOzyax3a17K-1" target="JlspJVOZABOzyax3a17K-2" edge="1">
          <mxGeometry relative="1" as="geometry" />
        </mxCell>
        <mxCell id="JlspJVOZABOzyax3a17K-1" value="inicio" style="strokeWidth=2;html=1;shape=mxgraph.flowchart.start_1;whiteSpace=wrap;" parent="1" vertex="1">
          <mxGeometry x="120" y="50" width="100" height="60" as="geometry" />
        </mxCell>
        <mxCell id="JlspJVOZABOzyax3a17K-7" value="" style="edgeStyle=orthogonalEdgeStyle;rounded=0;orthogonalLoop=1;jettySize=auto;html=1;entryX=0.5;entryY=0.212;entryDx=0;entryDy=0;entryPerimeter=0;" parent="1" source="JlspJVOZABOzyax3a17K-2" target="JlspJVOZABOzyax3a17K-4" edge="1">
          <mxGeometry relative="1" as="geometry" />
        </mxCell>
        <mxCell id="JlspJVOZABOzyax3a17K-2" value="&amp;nbsp;temperatura,&lt;div&gt;situacao.&lt;/div&gt;" style="shape=parallelogram;html=1;strokeWidth=2;perimeter=parallelogramPerimeter;whiteSpace=wrap;rounded=1;arcSize=12;size=0.23;" parent="1" vertex="1">
          <mxGeometry x="120" y="150" width="100" height="60" as="geometry" />
        </mxCell>
        <mxCell id="JlspJVOZABOzyax3a17K-8" value="" style="edgeStyle=orthogonalEdgeStyle;rounded=0;orthogonalLoop=1;jettySize=auto;html=1;" parent="1" source="JlspJVOZABOzyax3a17K-4" target="JlspJVOZABOzyax3a17K-6" edge="1">
          <mxGeometry relative="1" as="geometry" />
        </mxCell>
        <mxCell id="JlspJVOZABOzyax3a17K-4" value="&lt;div&gt;&lt;br&gt;&lt;/div&gt;temperatura" style="html=1;strokeWidth=2;shape=manualInput;whiteSpace=wrap;rounded=1;size=26;arcSize=11;" parent="1" vertex="1">
          <mxGeometry x="120" y="260" width="100" height="60" as="geometry" />
        </mxCell>
        <mxCell id="JlspJVOZABOzyax3a17K-10" value="" style="edgeStyle=orthogonalEdgeStyle;rounded=0;orthogonalLoop=1;jettySize=auto;html=1;" parent="1" source="JlspJVOZABOzyax3a17K-6" target="JlspJVOZABOzyax3a17K-9" edge="1">
          <mxGeometry relative="1" as="geometry" />
        </mxCell>
        <mxCell id="JlspJVOZABOzyax3a17K-13" value="VERDADE" style="edgeLabel;html=1;align=center;verticalAlign=middle;resizable=0;points=[];" parent="JlspJVOZABOzyax3a17K-10" vertex="1" connectable="0">
          <mxGeometry x="-0.2857" relative="1" as="geometry">
            <mxPoint as="offset" />
          </mxGeometry>
        </mxCell>
        <mxCell id="JlspJVOZABOzyax3a17K-16" value="" style="edgeStyle=orthogonalEdgeStyle;rounded=0;orthogonalLoop=1;jettySize=auto;html=1;" parent="1" source="JlspJVOZABOzyax3a17K-6" target="JlspJVOZABOzyax3a17K-15" edge="1">
          <mxGeometry relative="1" as="geometry" />
        </mxCell>
        <mxCell id="JlspJVOZABOzyax3a17K-17" value="FALSO" style="edgeLabel;html=1;align=center;verticalAlign=middle;resizable=0;points=[];" parent="JlspJVOZABOzyax3a17K-16" vertex="1" connectable="0">
          <mxGeometry x="-0.3553" y="3" relative="1" as="geometry">
            <mxPoint as="offset" />
          </mxGeometry>
        </mxCell>
        <mxCell id="JlspJVOZABOzyax3a17K-6" value="temperatura &amp;lt;= 36.5" style="strokeWidth=2;html=1;shape=mxgraph.flowchart.decision;whiteSpace=wrap;" parent="1" vertex="1">
          <mxGeometry x="100" y="390" width="140" height="110" as="geometry" />
        </mxCell>
        <mxCell id="JlspJVOZABOzyax3a17K-9" value="situacao = &quot;Hipotermia&quot;" style="strokeWidth=2;html=1;shape=mxgraph.flowchart.display;whiteSpace=wrap;" parent="1" vertex="1">
          <mxGeometry x="120" y="570" width="100" height="60" as="geometry" />
        </mxCell>
        <mxCell id="JlspJVOZABOzyax3a17K-19" value="" style="edgeStyle=orthogonalEdgeStyle;rounded=0;orthogonalLoop=1;jettySize=auto;html=1;" parent="1" source="JlspJVOZABOzyax3a17K-15" target="JlspJVOZABOzyax3a17K-18" edge="1">
          <mxGeometry relative="1" as="geometry" />
        </mxCell>
        <mxCell id="JlspJVOZABOzyax3a17K-20" value="VERDADE" style="edgeLabel;html=1;align=center;verticalAlign=middle;resizable=0;points=[];" parent="JlspJVOZABOzyax3a17K-19" vertex="1" connectable="0">
          <mxGeometry x="-0.3704" y="1" relative="1" as="geometry">
            <mxPoint as="offset" />
          </mxGeometry>
        </mxCell>
        <mxCell id="JlspJVOZABOzyax3a17K-22" value="" style="edgeStyle=orthogonalEdgeStyle;rounded=0;orthogonalLoop=1;jettySize=auto;html=1;" parent="1" source="JlspJVOZABOzyax3a17K-15" target="JlspJVOZABOzyax3a17K-21" edge="1">
          <mxGeometry relative="1" as="geometry" />
        </mxCell>
        <mxCell id="JlspJVOZABOzyax3a17K-25" value="FALSO" style="edgeLabel;html=1;align=center;verticalAlign=middle;resizable=0;points=[];" parent="JlspJVOZABOzyax3a17K-22" vertex="1" connectable="0">
          <mxGeometry x="-0.3125" y="-1" relative="1" as="geometry">
            <mxPoint x="-1" as="offset" />
          </mxGeometry>
        </mxCell>
        <mxCell id="JlspJVOZABOzyax3a17K-15" value="&amp;nbsp; &amp;nbsp;temperatura &amp;gt;=36.6&amp;nbsp;&lt;div&gt;e&amp;nbsp;&lt;/div&gt;&lt;div&gt;&amp;nbsp; temperatura &amp;lt;= 37&lt;/div&gt;" style="strokeWidth=2;html=1;shape=mxgraph.flowchart.decision;whiteSpace=wrap;" parent="1" vertex="1">
          <mxGeometry x="290" y="385" width="150" height="115" as="geometry" />
        </mxCell>
        <mxCell id="JlspJVOZABOzyax3a17K-18" value="situacao =&amp;nbsp;&lt;div&gt;&quot;Normal&quot;&lt;/div&gt;" style="strokeWidth=2;html=1;shape=mxgraph.flowchart.display;whiteSpace=wrap;" parent="1" vertex="1">
          <mxGeometry x="315" y="570" width="100" height="60" as="geometry" />
        </mxCell>
        <mxCell id="JlspJVOZABOzyax3a17K-24" value="" style="edgeStyle=orthogonalEdgeStyle;rounded=0;orthogonalLoop=1;jettySize=auto;html=1;" parent="1" source="JlspJVOZABOzyax3a17K-21" target="JlspJVOZABOzyax3a17K-23" edge="1">
          <mxGeometry relative="1" as="geometry" />
        </mxCell>
        <mxCell id="JlspJVOZABOzyax3a17K-34" value="VERDADE" style="edgeLabel;html=1;align=center;verticalAlign=middle;resizable=0;points=[];" parent="JlspJVOZABOzyax3a17K-24" vertex="1" connectable="0">
          <mxGeometry x="-0.4296" y="-1" relative="1" as="geometry">
            <mxPoint y="1" as="offset" />
          </mxGeometry>
        </mxCell>
        <mxCell id="JlspJVOZABOzyax3a17K-21" value="temperatura &amp;gt; 37&amp;nbsp;&lt;div&gt;&amp;nbsp; &amp;nbsp; e&amp;nbsp;&lt;/div&gt;&lt;div&gt;&amp;nbsp;temperatura &amp;lt;= 38&lt;/div&gt;" style="strokeWidth=2;html=1;shape=mxgraph.flowchart.decision;whiteSpace=wrap;" parent="1" vertex="1">
          <mxGeometry x="500" y="385" width="150" height="115" as="geometry" />
        </mxCell>
        <mxCell id="JlspJVOZABOzyax3a17K-23" value="situacao =&amp;nbsp;&lt;div&gt;&quot;Estado Febril&lt;/div&gt;" style="strokeWidth=2;html=1;shape=mxgraph.flowchart.display;whiteSpace=wrap;" parent="1" vertex="1">
          <mxGeometry x="525" y="570" width="100" height="60" as="geometry" />
        </mxCell>
        <mxCell id="JlspJVOZABOzyax3a17K-30" style="edgeStyle=orthogonalEdgeStyle;rounded=0;orthogonalLoop=1;jettySize=auto;html=1;exitX=1;exitY=0.5;exitDx=0;exitDy=0;exitPerimeter=0;entryX=0;entryY=0.5;entryDx=0;entryDy=0;entryPerimeter=0;" parent="1" source="JlspJVOZABOzyax3a17K-21" edge="1">
          <mxGeometry relative="1" as="geometry">
            <mxPoint x="730" y="445" as="targetPoint" />
          </mxGeometry>
        </mxCell>
        <mxCell id="JlspJVOZABOzyax3a17K-31" value="FALSO" style="edgeLabel;html=1;align=center;verticalAlign=middle;resizable=0;points=[];" parent="JlspJVOZABOzyax3a17K-30" vertex="1" connectable="0">
          <mxGeometry x="-0.2" y="-1" relative="1" as="geometry">
            <mxPoint as="offset" />
          </mxGeometry>
        </mxCell>
        <mxCell id="JlspJVOZABOzyax3a17K-44" value="" style="edgeStyle=orthogonalEdgeStyle;rounded=0;orthogonalLoop=1;jettySize=auto;html=1;" parent="1" source="JlspJVOZABOzyax3a17K-33" target="JlspJVOZABOzyax3a17K-43" edge="1">
          <mxGeometry relative="1" as="geometry" />
        </mxCell>
        <mxCell id="JlspJVOZABOzyax3a17K-45" value="VERDADE" style="edgeLabel;html=1;align=center;verticalAlign=middle;resizable=0;points=[];" parent="JlspJVOZABOzyax3a17K-44" vertex="1" connectable="0">
          <mxGeometry x="-0.0133" y="-1" relative="1" as="geometry">
            <mxPoint as="offset" />
          </mxGeometry>
        </mxCell>
        <mxCell id="JlspJVOZABOzyax3a17K-33" value="temperatura &amp;gt;38" style="strokeWidth=2;html=1;shape=mxgraph.flowchart.decision;whiteSpace=wrap;" parent="1" vertex="1">
          <mxGeometry x="727" y="395" width="100" height="100" as="geometry" />
        </mxCell>
        <mxCell id="JlspJVOZABOzyax3a17K-42" value="" style="edgeStyle=orthogonalEdgeStyle;rounded=0;orthogonalLoop=1;jettySize=auto;html=1;" parent="1" source="JlspJVOZABOzyax3a17K-35" target="JlspJVOZABOzyax3a17K-41" edge="1">
          <mxGeometry relative="1" as="geometry" />
        </mxCell>
        <mxCell id="JlspJVOZABOzyax3a17K-35" value="" style="verticalLabelPosition=bottom;verticalAlign=top;html=1;shape=mxgraph.flowchart.on-page_reference;" parent="1" vertex="1">
          <mxGeometry x="450" y="760" width="50" height="50" as="geometry" />
        </mxCell>
        <mxCell id="JlspJVOZABOzyax3a17K-36" style="edgeStyle=orthogonalEdgeStyle;rounded=0;orthogonalLoop=1;jettySize=auto;html=1;exitX=0.5;exitY=1;exitDx=0;exitDy=0;exitPerimeter=0;entryX=0;entryY=0.5;entryDx=0;entryDy=0;entryPerimeter=0;" parent="1" source="JlspJVOZABOzyax3a17K-9" target="JlspJVOZABOzyax3a17K-35" edge="1">
          <mxGeometry relative="1" as="geometry" />
        </mxCell>
        <mxCell id="JlspJVOZABOzyax3a17K-37" style="edgeStyle=orthogonalEdgeStyle;rounded=0;orthogonalLoop=1;jettySize=auto;html=1;exitX=0.5;exitY=1;exitDx=0;exitDy=0;exitPerimeter=0;entryX=0.145;entryY=0.145;entryDx=0;entryDy=0;entryPerimeter=0;" parent="1" source="JlspJVOZABOzyax3a17K-18" target="JlspJVOZABOzyax3a17K-35" edge="1">
          <mxGeometry relative="1" as="geometry" />
        </mxCell>
        <mxCell id="JlspJVOZABOzyax3a17K-38" style="edgeStyle=orthogonalEdgeStyle;rounded=0;orthogonalLoop=1;jettySize=auto;html=1;exitX=0.5;exitY=1;exitDx=0;exitDy=0;exitPerimeter=0;entryX=0.855;entryY=0.145;entryDx=0;entryDy=0;entryPerimeter=0;" parent="1" source="JlspJVOZABOzyax3a17K-23" target="JlspJVOZABOzyax3a17K-35" edge="1">
          <mxGeometry relative="1" as="geometry" />
        </mxCell>
        <mxCell id="JlspJVOZABOzyax3a17K-41" value="Fim" style="strokeWidth=2;html=1;shape=mxgraph.flowchart.start_1;whiteSpace=wrap;" parent="1" vertex="1">
          <mxGeometry x="425" y="900" width="100" height="60" as="geometry" />
        </mxCell>
        <mxCell id="JlspJVOZABOzyax3a17K-43" value="situacao =&amp;nbsp;&lt;div&gt;&quot;Febre&quot;&lt;/div&gt;" style="strokeWidth=2;html=1;shape=mxgraph.flowchart.display;whiteSpace=wrap;" parent="1" vertex="1">
          <mxGeometry x="727" y="570" width="100" height="60" as="geometry" />
        </mxCell>
        <mxCell id="JlspJVOZABOzyax3a17K-46" style="edgeStyle=orthogonalEdgeStyle;rounded=0;orthogonalLoop=1;jettySize=auto;html=1;exitX=0.5;exitY=1;exitDx=0;exitDy=0;exitPerimeter=0;entryX=1;entryY=0.5;entryDx=0;entryDy=0;entryPerimeter=0;" parent="1" source="JlspJVOZABOzyax3a17K-43" target="JlspJVOZABOzyax3a17K-35" edge="1">
          <mxGeometry relative="1" as="geometry" />
        </mxCell>
      </root>
    </mxGraphModel>
  </diagram>
</mxfile>
